# Blender 4.0.1
# www.blender.org
mtllib table.mtl
o table
v -1.969634 1.732178 1.101156
v -1.969634 1.633350 1.101156
v -1.969635 1.732178 -1.118844
v -1.969635 1.633350 -1.118844
v 1.970366 1.732178 1.101156
v 1.970366 1.633350 1.101156
v 1.970365 1.732178 -1.118844
v 1.970365 1.633350 -1.118844
v 1.706271 -0.000114 -0.845787
v 1.665067 1.634196 -0.804584
v 1.706271 -0.000114 -0.983380
v 1.665067 1.634196 -1.024584
v 1.843864 -0.000114 -0.845787
v 1.885067 1.634196 -0.804584
v 1.843864 -0.000114 -0.983380
v 1.885067 1.634196 -1.024584
v -1.838775 -0.000114 -0.845787
v -1.879978 1.634196 -0.804583
v -1.838775 -0.000114 -0.983380
v -1.879978 1.634196 -1.024583
v -1.701182 -0.000114 -0.845787
v -1.659978 1.634196 -0.804583
v -1.701182 -0.000114 -0.983380
v -1.659978 1.634196 -1.024583
v -1.838774 -0.000114 0.970562
v -1.879978 1.634196 1.011765
v -1.838774 -0.000114 0.832969
v -1.879978 1.634196 0.791766
v -1.701182 -0.000114 0.970562
v -1.659978 1.634196 1.011765
v -1.701182 -0.000114 0.832969
v -1.659978 1.634196 0.791766
v 1.706271 -0.000114 0.970562
v 1.665068 1.634196 1.011765
v 1.706271 -0.000114 0.832969
v 1.665068 1.634196 0.791765
v 1.843864 -0.000114 0.970562
v 1.885068 1.634196 1.011765
v 1.843864 -0.000114 0.832969
v 1.885068 1.634196 0.791765
vn -1.0000 -0.0000 -0.0000
vn -0.0000 -0.0000 -1.0000
vn 1.0000 -0.0000 -0.0000
vn -0.0000 -0.0000 1.0000
vn -0.0000 1.0000 -0.0000
vn -0.0000 -1.0000 -0.0000
vn 0.9997 0.0252 -0.0000
vn -0.0000 0.0252 0.9997
vn -0.9997 0.0252 -0.0000
vn -0.0000 0.0252 -0.9997
vt 8.190479 -1.681094
vt 1.022820 -1.681094
vt 1.022820 -1.845475
vt 8.190479 -1.845475
vt 1.022820 -1.352331
vt -6.144839 -1.352331
vt -6.144839 -1.516712
vt 1.022820 -1.516712
vt 8.190479 -1.516712
vt 1.022820 -1.516712
vt 8.190479 -1.352331
vt 1.022820 -1.352331
vt 0.078304 -2.064056
vt 1.022820 -2.064056
vt 1.022820 -1.753953
vt 0.078304 -1.753954
vt 1.022820 -1.753954
vt 1.022820 -1.443852
vt 0.078304 -1.443852
vt 0.137262 0.084127
vt 0.511746 0.066599
vt 0.511746 0.160199
vt 0.137262 0.142668
vt 0.137262 0.814042
vt 0.511746 0.804166
vt 0.511746 0.856905
vt 0.137262 0.847027
vt 0.137262 -0.103074
vt 0.511746 -0.120603
vt 0.511746 -0.027003
vt 0.137262 -0.044534
vt 0.137262 1.077740
vt 0.511746 1.067864
vt 0.511746 1.120603
vt 0.137262 1.110724
vt 0.443810 0.464757
vt 0.443810 0.497742
vt 0.442406 0.497742
vt 0.442406 0.464757
vt 0.443810 0.359278
vt 0.443810 0.412017
vt 0.441566 0.412017
vt 0.441566 0.359278
s 1
usemtl table
f 1/1/1 3/4/1 4/3/1 2/2/1
f 3/5/2 7/8/2 8/7/2 4/6/2
f 7/9/3 5/1/3 6/2/3 8/10/3
f 5/11/4 1/9/4 2/10/4 6/12/4
f 3/13/5 1/16/5 5/15/5 7/14/5
f 8/16/6 6/19/6 2/18/6 4/17/6
f 9/20/7 11/23/7 12/22/7 10/21/7
f 11/24/8 15/27/8 16/26/8 12/25/8
f 15/28/9 13/31/9 14/30/9 16/29/9
f 13/32/10 9/35/10 10/34/10 14/33/10
f 11/36/5 9/39/5 13/38/5 15/37/5
f 16/40/6 14/43/6 10/42/6 12/41/6
f 17/20/7 19/23/7 20/22/7 18/21/7
f 19/24/8 23/27/8 24/26/8 20/25/8
f 23/28/9 21/31/9 22/30/9 24/29/9
f 21/32/10 17/35/10 18/34/10 22/33/10
f 19/36/5 17/39/5 21/38/5 23/37/5
f 24/40/6 22/43/6 18/42/6 20/41/6
f 25/20/7 27/23/7 28/22/7 26/21/7
f 27/24/8 31/27/8 32/26/8 28/25/8
f 31/28/9 29/31/9 30/30/9 32/29/9
f 29/32/10 25/35/10 26/34/10 30/33/10
f 27/36/5 25/39/5 29/38/5 31/37/5
f 32/40/6 30/43/6 26/42/6 28/41/6
f 33/20/7 35/23/7 36/22/7 34/21/7
f 35/24/8 39/27/8 40/26/8 36/25/8
f 39/28/9 37/31/9 38/30/9 40/29/9
f 37/32/10 33/35/10 34/34/10 38/33/10
f 35/36/5 33/39/5 37/38/5 39/37/5
f 40/40/6 38/43/6 34/42/6 36/41/6
